HIERARCHY
ROOT Hips
{
	OFFSET 0.000000 0.000000 0.000000 
	CHANNELS 6 Xposition Yposition Zposition Zrotation Yrotation Xrotation
	JOINT LeftUpLeg
	{
		OFFSET 1.363060 -1.794630 0.839290 
		CHANNELS 3 Zrotation Yrotation Xrotation
		JOINT LeftLeg
		{
			OFFSET 2.448110 -6.726130 0.000000 
			CHANNELS 3 Zrotation Yrotation Xrotation
			JOINT LeftFoot
			{
				OFFSET 2.562200 -7.039590 0.000000 
				CHANNELS 3 Zrotation Yrotation Xrotation
				JOINT LeftToeBase
				{
					OFFSET 0.157640 -0.433110 2.322550 
					CHANNELS 3 Zrotation Yrotation Xrotation
					End Site
					{
						OFFSET 0.000000 0.000000 0.000000 
					}
				}
			}
		}
	}
	JOINT RightUpLeg
	{
		OFFSET -1.305520 -1.794630 0.839290 
		CHANNELS 3 Zrotation Yrotation Xrotation
		JOINT RightLeg
		{
			OFFSET -2.542530 -6.985550 0.000000 
			CHANNELS 3 Zrotation Yrotation Xrotation
			JOINT RightFoot
			{
				OFFSET -2.568260 -7.056230 0.000000 
				CHANNELS 3 Zrotation Yrotation Xrotation
				JOINT RightToeBase
				{
					OFFSET -0.164730 -0.452590 2.363150 
					CHANNELS 3 Zrotation Yrotation Xrotation
					End Site
					{
						OFFSET 0.000000 0.000000 0.000000 
					}
				}
			}
		}
	}
	JOINT Spine
	{
		OFFSET 0.028270 2.035590 -0.193380 
		CHANNELS 3 Zrotation Yrotation Xrotation
		JOINT Spine1
		{
			OFFSET 0.056720 2.048850 -0.042750 
			CHANNELS 3 Zrotation Yrotation Xrotation
			JOINT Neck1
			{
				OFFSET -0.054170 1.746240 0.172020 
				CHANNELS 3 Zrotation Yrotation Xrotation
				JOINT Head
				{
					OFFSET 0.104070 1.761360 -0.123970 
					CHANNELS 3 Zrotation Yrotation Xrotation
					End Site
					{
						OFFSET 0.000000 0.000000 0.000000 
					}
				}
			}
			JOINT LeftArm
			{
				OFFSET 3.362410 1.200890 -0.311210 
				CHANNELS 3 Zrotation Yrotation Xrotation
				JOINT LeftForeArm
				{
					OFFSET 4.983000 -0.000000 -0.000000 
					CHANNELS 3 Zrotation Yrotation Xrotation
					JOINT LeftHand
					{
						OFFSET 3.483560 -0.000000 -0.000000 
						CHANNELS 3 Zrotation Yrotation Xrotation
						JOINT LeftHandIndex1
						{
							OFFSET 0.715260 -0.000000 -0.000000 
							CHANNELS 3 Zrotation Yrotation Xrotation
							End Site
							{
								OFFSET 0.000000 0.000000 0.000000 
							}
						}
					}
				}
			}
			JOINT RightArm
			{
				OFFSET -3.136600 1.374050 -0.404650 
				CHANNELS 3 Zrotation Yrotation Xrotation
				JOINT RightForeArm
				{
					OFFSET -5.241900 -0.000000 -0.000000 
					CHANNELS 3 Zrotation Yrotation Xrotation
					JOINT RightHand
					{
						OFFSET -3.444170 -0.000000 -0.000000 
						CHANNELS 3 Zrotation Yrotation Xrotation
						JOINT RightHandIndex1
						{
							OFFSET -0.622530 -0.000000 -0.000000 
							CHANNELS 3 Zrotation Yrotation Xrotation
							End Site
							{
								OFFSET 0.000000 0.000000 0.000000 
							}
						}
					}
				}
			}
		}
	}
}
MOTION
Frames: 9
Frame Time: 0.041667
-0.178202 15.948267 0.023553 28.537440 80.325044 55.376582 -22.943522 3.909969 -69.841075 12.464582 17.549334 65.086033 2.864959 -19.946225 -1.010120 0.156300 -2.547700 -7.021800 9.079775 3.766676 -70.175067 -11.079016 -18.660499 62.809687 -1.810928 21.692472 -6.444192 -1.217800 6.999800 -19.714800 5.382025 0.137552 14.013873 -2.606419 0.449913 -4.626197 22.097749 -21.854446 9.953318 3.024900 -9.017700 8.920200 -80.404909 7.884714 32.401632 53.072981 -51.472420 -24.605044 0.781031 2.784975 -18.562256 -7.125000 0.000000 0.000000 48.394660 32.876431 -24.452465 -41.930849 46.319396 -12.048190 2.051868 0.233032 -176.313695 7.125000 0.000000 0.000000 
-0.166620 16.019314 0.018784 28.822480 80.483478 55.561242 -22.924058 3.778849 -68.903971 12.088246 17.355402 63.852327 2.871485 -19.790665 -0.960860 0.161500 -2.589000 -7.136600 9.230497 3.766795 -69.354108 -10.753625 -18.466028 61.733788 -1.763128 21.604671 -6.003110 -1.162700 6.845300 -19.257900 5.319429 0.103461 13.840772 -2.528879 0.426202 -4.529820 21.821563 -21.840180 10.181651 2.941600 -9.007900 8.915200 -80.371048 7.857752 32.747014 52.907573 -51.399562 -24.471591 0.796614 2.727389 -18.577450 -7.125000 0.000000 0.000000 48.778153 32.008399 -23.266395 -42.543353 46.665026 -12.392342 2.008122 0.217115 -176.667470 7.125000 0.000000 0.000000 
-0.149102 16.090264 0.010900 28.094966 80.663944 54.682036 -22.756942 3.807103 -67.933344 11.725777 17.171879 62.666261 2.877446 -19.673975 -0.913959 0.160600 -2.581900 -7.116900 9.581205 3.829017 -68.420777 -10.430558 -18.252170 60.640154 -1.722025 21.453814 -5.597719 -1.096100 6.653000 -18.691300 5.309283 0.094898 13.733117 -2.514733 0.418893 -4.386508 21.652747 -21.785959 10.378925 2.900700 -8.973600 8.928500 -80.381591 7.820388 33.026251 52.802320 -51.351252 -24.381917 0.788700 2.656392 -18.510760 -7.125000 0.000000 0.000000 49.145096 31.271437 -22.235633 -43.053829 46.951498 -12.691933 2.001357 0.222456 -177.069582 7.125000 0.000000 0.000000 
-0.133433 16.160922 0.003698 27.665109 80.840964 54.058582 -22.656949 3.841526 -66.954180 11.382964 16.987746 61.517068 2.898661 -19.472279 -1.095727 0.220300 -3.021100 -8.337500 9.884687 3.863708 -67.460463 -10.109110 -18.032213 59.543772 -1.682175 21.230334 -5.173246 -1.005500 6.380500 -17.892600 5.266605 0.050410 13.711350 -2.486839 0.394505 -4.181009 21.720343 -21.846619 10.661335 2.920300 -8.961700 9.036800 -80.334713 7.701501 33.221323 52.828251 -51.357890 -24.401560 0.765065 2.644602 -18.598538 -7.125000 0.000000 0.000000 49.535000 30.664598 -21.405729 -43.517656 47.216505 -12.980871 2.018503 0.259464 -177.559102 7.125000 0.000000 0.000000 
-0.120196 16.227979 -0.001655 27.481279 81.044197 53.730323 -22.596524 3.853994 -66.085543 11.048332 16.801150 60.395083 2.909661 -19.162988 -1.193794 0.292800 -3.479600 -9.617000 10.191651 3.878972 -66.589321 -9.792561 -17.812340 58.452216 -1.662477 20.870454 -4.908682 -0.998200 6.358000 -17.826800 5.192771 -0.048273 13.609045 -2.446664 0.334600 -4.008269 21.715075 -22.067527 11.379801 2.895300 -8.972300 9.291600 -80.138235 7.607816 33.405190 52.745935 -51.318300 -24.333830 0.739662 2.659361 -18.821057 -7.125000 0.000000 0.000000 50.040725 30.107423 -20.521674 -44.018386 47.500409 -13.293728 2.014307 0.294323 -177.897955 7.125000 0.000000 0.000000 
-0.105987 16.291046 -0.007981 26.915635 81.213561 53.017886 -22.521614 3.919720 -65.267601 10.719556 16.616398 59.293398 2.914411 -18.799144 -1.258327 0.340000 -3.747000 -10.365800 10.538278 3.911561 -65.711261 -9.487273 -17.585572 57.376709 -1.641312 20.589584 -4.644725 -0.979600 6.300500 -17.658900 5.094442 -0.107066 13.468591 -2.460916 0.292629 -3.854134 21.821684 -22.186613 11.906748 2.930200 -8.960700 9.459300 -80.066677 7.539211 33.500792 52.569396 -51.243238 -24.191768 0.722299 2.657507 -18.828099 -7.125000 0.000000 0.000000 50.620648 29.494104 -19.598649 -44.455405 47.729001 -13.554218 1.975106 0.311774 -178.351302 7.125000 0.000000 0.000000 
-0.089247 16.357032 -0.014307 26.504368 81.365561 52.395667 -22.488788 4.021766 -64.356728 10.395555 16.426436 58.200847 2.913279 -18.474269 -1.249146 0.358600 -3.847000 -10.646600 10.883347 3.879037 -64.752325 -9.191783 -17.355784 56.314339 -1.631383 20.322762 -4.513592 -0.997800 6.357000 -17.823800 4.971325 -0.138979 13.388303 -2.481012 0.268420 -3.669553 21.840493 -22.242973 12.239398 2.937300 -8.949200 9.540900 -80.059030 7.464066 33.562778 52.466556 -51.199466 -24.110013 0.710937 2.655861 -18.747254 -7.125000 0.000000 0.000000 51.154350 28.832569 -18.752109 -44.890826 47.950380 -13.810743 1.935910 0.306132 -178.887061 7.125000 0.000000 0.000000 
-0.074746 16.417471 -0.018881 26.408188 81.528955 52.073662 -22.495037 4.112875 -63.419689 10.082671 16.230230 57.127910 2.915859 -18.242377 -1.247255 0.367000 -3.891400 -10.771400 11.165324 3.836742 -63.827871 -8.912906 -17.133809 55.301549 -1.620610 20.060363 -4.376450 -1.007100 6.385600 -17.907500 4.944964 -0.206113 13.251346 -2.410421 0.230019 -3.568998 21.701845 -22.255120 12.572978 2.916200 -8.937100 9.602000 -80.163241 7.430468 33.584888 52.248432 -51.112013 -23.941979 0.688916 2.657222 -18.747850 -7.125000 0.000000 0.000000 51.618932 28.154841 -17.943305 -45.535557 48.312222 -14.224401 1.963593 0.293552 -178.715817 7.125000 0.000000 0.000000 
-0.060536 16.471973 -0.021801 25.924880 81.685905 51.367278 -22.482026 4.296155 -62.547402 9.783791 16.040735 56.093966 2.923064 -18.043166 -1.302619 0.369600 -3.905200 -10.810100 11.446837 3.886196 -62.895467 -8.644778 -16.906378 54.310802 -1.610559 19.758745 -4.233283 -0.967300 6.261800 -17.545900 4.985705 -0.275900 13.111896 -2.287834 0.192217 -3.483295 21.540516 -22.273446 13.009590 2.887500 -8.913800 9.708500 -80.320647 7.414454 33.539712 52.041364 -51.029658 -23.782375 0.649741 2.656868 -18.750881 -7.125000 0.000000 0.000000 52.031142 27.536804 -17.102901 -46.137419 48.644308 -14.616209 1.987773 0.295338 -178.441907 7.125000 0.000000 0.000000 
